<svg width="238" height="95" viewBox="0 0 238 95" fill="none" xmlns="http://www.w3.org/2000/svg">
<rect x="3" y="12" width="113" height="65" fill="white"/>
<path d="M226.925 60.7722C226.527 61.6571 225.978 62.3947 225.274 62.9878C224.569 63.5803 223.737 64.0297 222.778 64.3325C221.819 64.6346 220.635 64.7853 219.226 64.7853H211.935V50.2366H217.922C219.764 50.2366 221.262 50.4074 222.414 50.7495C223.564 51.0918 224.511 51.5811 225.254 52.2138C225.996 52.8463 226.558 53.6309 226.944 54.5657C227.327 55.501 227.519 56.5621 227.519 57.7491C227.519 58.8828 227.319 59.8907 226.925 60.7722ZM224.523 38.471C224.242 39.3021 223.814 40.0279 223.24 40.6466C222.663 41.2675 221.939 41.7541 221.069 42.1095C220.2 42.4661 219.035 42.6438 217.577 42.6438H211.935V29.3575H217.039C218.6 29.3575 219.848 29.502 220.782 29.7923C221.715 30.0834 222.49 30.4975 223.104 31.0373C223.718 31.5787 224.178 32.2583 224.488 33.0754C224.794 33.8918 224.948 34.8147 224.948 35.8435C224.948 36.765 224.806 37.6416 224.523 38.471ZM237.23 52.6872C236.719 51.2909 236.021 50.072 235.138 49.0302C234.255 47.9897 233.218 47.1374 232.029 46.4792C230.84 45.8211 229.539 45.3593 228.132 45.096C229.233 44.6735 230.211 44.1198 231.07 43.4347C231.928 42.7496 232.65 41.9587 233.239 41.0629C233.827 40.1661 234.275 39.1706 234.581 38.0764C234.891 36.9827 235.043 35.8164 235.043 34.5769C235.043 32.3634 234.659 30.4388 233.891 28.8044C233.124 27.1702 232.016 25.8179 230.571 24.7513C229.125 23.6832 227.346 22.8868 225.235 22.3579C223.123 21.8312 220.545 21.5678 217.501 21.5678H205.024C204.18 21.5678 203.47 21.825 202.895 22.3386C202.318 22.8536 202.029 23.6908 202.029 24.85V69.4531C202.029 70.613 202.318 71.4496 202.895 71.9646C203.47 72.4776 204.18 72.7355 205.024 72.7355H218.23C220.226 72.7355 222.035 72.6109 223.661 72.3587C225.286 72.1077 226.815 71.7205 228.249 71.1938C229.68 70.6663 230.993 69.9923 232.183 69.1751C233.372 68.3594 234.395 67.3827 235.255 66.2488C236.11 65.1172 236.782 63.812 237.269 62.336C237.756 60.86 238 59.2113 238 57.3916C238 55.653 237.742 54.0852 237.23 52.6872ZM179.307 53.0813H165.217L172.243 31.3346H172.281L179.307 53.0813ZM179.729 23.5055C179.575 23.0058 179.387 22.6095 179.171 22.3193C178.954 22.0303 178.596 21.8131 178.097 21.6666C177.598 21.5229 176.899 21.4294 176.004 21.3894C175.109 21.3507 173.906 21.3307 172.397 21.3307C171.092 21.3307 170.041 21.3507 169.248 21.3894C168.455 21.4294 167.834 21.5229 167.388 21.6666C166.939 21.8131 166.613 22.022 166.409 22.2991C166.203 22.5764 166.025 22.938 165.871 23.3866L150.553 68.7811C150.247 69.7019 150.056 70.4417 149.979 70.9947C149.901 71.5478 149.991 71.9784 150.247 72.2805C150.503 72.5833 150.963 72.7748 151.63 72.853C152.295 72.9325 153.215 72.9719 154.394 72.9719C155.493 72.9719 156.382 72.9463 157.062 72.8923C157.739 72.8404 158.263 72.7403 158.635 72.5971C159.005 72.452 159.274 72.2529 159.441 72.0026C159.607 71.7538 159.742 71.4427 159.844 71.0742L162.991 61.0708H181.647L184.987 71.3506C185.089 71.6929 185.217 71.9694 185.371 72.1803C185.525 72.3911 185.794 72.5557 186.176 72.6746C186.56 72.7942 187.117 72.8716 187.848 72.9132C188.578 72.951 189.593 72.9719 190.898 72.9719C192.152 72.9719 193.136 72.9372 193.855 72.8716C194.57 72.808 195.071 72.6351 195.352 72.3587C195.632 72.0821 195.734 71.6673 195.658 71.1123C195.582 70.5611 195.388 69.8078 195.083 68.8585L179.729 23.5055ZM148.346 66.3872C148.28 65.8479 148.187 65.4143 148.061 65.0839C147.93 64.7542 147.771 64.5156 147.577 64.3719C147.387 64.2266 147.162 64.1528 146.908 64.1528H131.284V22.9905C131.284 22.7291 131.2 22.492 131.034 22.2798C130.868 22.069 130.593 21.8975 130.209 21.7662C129.825 21.6342 129.313 21.5291 128.673 21.4501C128.034 21.3707 127.214 21.3307 126.217 21.3307C125.244 21.3307 124.432 21.3707 123.779 21.4501C123.127 21.5291 122.608 21.6342 122.225 21.7662C121.841 21.8975 121.566 22.069 121.398 22.2798C121.233 22.492 121.15 22.7291 121.15 22.9905V69.4531C121.15 70.613 121.439 71.4496 122.014 71.9646C122.59 72.4776 123.299 72.7355 124.145 72.7355H146.908C147.162 72.7355 147.387 72.6558 147.577 72.4969C147.771 72.3392 147.93 72.0821 148.061 71.726C148.187 71.3701 148.28 70.9222 148.346 70.3815C148.408 69.8423 148.443 69.1751 148.443 68.385C148.443 67.5934 148.408 66.9284 148.346 66.3872ZM114.202 25.522C114.509 24.5991 114.707 23.8609 114.797 23.3079C114.886 22.7541 114.81 22.3262 114.567 22.022C114.323 21.7199 113.876 21.5291 113.223 21.4501C112.57 21.3707 111.655 21.3307 110.479 21.3307C109.275 21.3307 108.328 21.3569 107.638 21.4094C106.948 21.4641 106.416 21.5678 106.044 21.7253C105.674 21.8837 105.412 22.1007 105.258 22.3787C105.104 22.6545 104.976 23.0174 104.875 23.4661L93.0124 62.7299H92.9743L80.8824 23.2691C80.7546 22.873 80.6205 22.5431 80.4794 22.2798C80.3384 22.0177 80.0888 21.8186 79.7308 21.6866C79.3726 21.5553 78.8612 21.4641 78.1961 21.4094C77.5303 21.3569 76.6081 21.3307 75.4322 21.3307C74.0495 21.3307 72.9746 21.3645 72.2072 21.4294C71.4398 21.4965 70.8958 21.6666 70.5763 21.9425C70.255 22.221 70.1284 22.6366 70.192 23.1896C70.255 23.7432 70.4415 24.4934 70.7485 25.4426L85.5275 70.7964C85.6291 71.1399 85.7383 71.4234 85.8537 71.648C85.9685 71.8713 86.1351 72.0614 86.3522 72.2203C86.5699 72.3773 86.8389 72.5107 87.1582 72.6158C87.4783 72.7215 87.8939 72.799 88.406 72.853C88.9184 72.9049 89.5385 72.9372 90.2685 72.951C90.9972 72.9648 91.8744 72.9719 92.8975 72.9719C94.1773 72.9719 95.2135 72.951 96.007 72.9132C96.8 72.8716 97.4271 72.7804 97.8874 72.6351C98.3486 72.4914 98.6804 72.2805 98.8857 72.0026C99.0896 71.726 99.257 71.3632 99.3848 70.9151L114.202 25.522ZM63.8388 25.7204C63.8388 25.0617 63.7558 24.4733 63.5893 23.9604C63.4219 23.4454 63.1793 23.012 62.8605 22.6545C62.5398 22.2991 62.1305 22.0303 61.6314 21.845C61.1331 21.6611 60.5377 21.5678 59.8471 21.5678H53.0528C52.1058 21.5678 51.2742 21.6666 50.5573 21.8636C49.8403 22.0627 49.2202 22.3987 48.6962 22.873C48.1709 23.3479 47.7104 23.9666 47.3136 24.7313C46.9162 25.4965 46.5525 26.4319 46.2199 27.5394L35.0877 57.9461H34.9343L24.1856 27.4597C23.8795 26.3531 23.5198 25.4226 23.1107 24.6724C22.7013 23.9197 22.1899 23.3155 21.5752 22.8536C20.962 22.3925 20.232 22.0627 19.388 21.8636C18.5431 21.6666 17.5318 21.5678 16.3551 21.5678H9.75308C8.60135 21.5678 7.67981 21.9244 6.9892 22.6366C6.29787 23.3479 5.95222 24.3759 5.95222 25.7204V71.3114C5.95222 71.574 6.02275 71.8126 6.16307 72.0233C6.3041 72.2343 6.55989 72.4049 6.93182 72.5364C7.30236 72.6698 7.79458 72.7748 8.40915 72.853C9.02374 72.9325 9.79109 72.9719 10.7119 72.9719C11.6583 72.9719 12.4333 72.9325 13.0347 72.853C13.6355 72.7748 14.1291 72.6698 14.5128 72.5364C14.8965 72.4049 15.1585 72.2343 15.2988 72.0233C15.4398 71.8126 15.511 71.574 15.511 71.3114V29.6741H15.5878L29.4833 71.2712C29.5599 71.5616 29.714 71.8126 29.9436 72.0233C30.1745 72.2343 30.4883 72.4118 30.8846 72.5557C31.2813 72.7022 31.7866 72.808 32.4012 72.8716C33.0152 72.9372 33.7569 72.9719 34.6265 72.9719C35.4962 72.9719 36.24 72.951 36.8533 72.9132C37.4679 72.8716 37.9726 72.7873 38.3701 72.6558C38.7655 72.5245 39.08 72.3449 39.3102 72.1216C39.5412 71.8989 39.7063 71.6154 39.8093 71.2712L54.2046 29.6741H54.2807V71.3114C54.2807 71.574 54.3575 71.8126 54.5116 72.0233C54.6644 72.2343 54.9201 72.4049 55.279 72.5364C55.637 72.6698 56.123 72.7748 56.7377 72.853C57.3516 72.9325 58.1195 72.9719 59.0403 72.9719C59.9875 72.9719 60.7687 72.9325 61.3819 72.853C61.9965 72.7748 62.4894 72.6698 62.8605 72.5364C63.2311 72.4049 63.4868 72.2343 63.6279 72.0233C63.7682 71.8126 63.8388 71.574 63.8388 71.3114V25.7204ZM117.15 94.3024H0V4.04151e-05H117.15V94.3024Z" fill="#597CC7"/>
</svg>
